<?xml version="1.0" encoding="utf-8"?>
<!-- Generator: Adobe Illustrator 27.5.0, SVG Export Plug-In . SVG Version: 6.00 Build 0)  -->
<svg version="1.1" id="Layer_1" xmlns="http://www.w3.org/2000/svg" xmlns:xlink="http://www.w3.org/1999/xlink" x="0px" y="0px"
	 viewBox="0 0 187.34 40.51" style="enable-background:new 0 0 187.34 40.51;" xml:space="preserve">
<g>
	<path d="M13.05,12.19H16l7.04,16.18h-4.02l-1.39-3.43h-6.28l-1.35,3.43H6.06L13.05,12.19z M14.43,16.9l-1.96,5.03h3.95L14.43,16.9z
		"/>
	<path d="M24.55,17.26h3.15v1.46h0.05c0.14-0.2,0.32-0.4,0.54-0.61c0.22-0.21,0.48-0.39,0.78-0.56c0.3-0.17,0.62-0.3,0.97-0.41
		c0.35-0.11,0.72-0.16,1.12-0.16c0.82,0,1.57,0.14,2.24,0.42c0.67,0.28,1.24,0.68,1.72,1.19c0.48,0.51,0.85,1.12,1.11,1.82
		c0.26,0.7,0.39,1.47,0.39,2.31c0,0.78-0.12,1.52-0.35,2.23c-0.24,0.71-0.57,1.34-1.01,1.88c-0.43,0.55-0.96,0.99-1.59,1.31
		c-0.62,0.33-1.33,0.49-2.12,0.49c-0.72,0-1.38-0.11-2-0.33c-0.62-0.22-1.12-0.6-1.52-1.13h-0.05v6.4h-3.43V17.26z M27.7,22.81
		c0,0.84,0.24,1.52,0.72,2.03s1.15,0.78,2.02,0.78s1.54-0.26,2.02-0.78c0.48-0.52,0.72-1.2,0.72-2.03c0-0.84-0.24-1.52-0.72-2.03
		C31.98,20.26,31.31,20,30.44,20s-1.54,0.26-2.02,0.78S27.7,21.98,27.7,22.81z"/>
	<path d="M38.62,17.26h3.43v1.78h0.05c0.37-0.69,0.8-1.2,1.3-1.54c0.5-0.34,1.13-0.51,1.9-0.51c0.2,0,0.4,0.01,0.59,0.02
		c0.2,0.01,0.38,0.05,0.55,0.09v3.13c-0.24-0.08-0.48-0.13-0.72-0.17C45.48,20.02,45.23,20,44.97,20c-0.66,0-1.17,0.09-1.55,0.27
		c-0.38,0.18-0.67,0.44-0.88,0.77c-0.21,0.33-0.34,0.72-0.4,1.18c-0.06,0.46-0.09,0.96-0.09,1.51v4.64h-3.43V17.26z"/>
	<path d="M47.69,13.77c0-0.55,0.19-1.02,0.58-1.4c0.39-0.39,0.86-0.58,1.41-0.58s1.02,0.19,1.4,0.58c0.39,0.39,0.58,0.86,0.58,1.4
		c0,0.55-0.19,1.02-0.58,1.4c-0.39,0.39-0.86,0.58-1.4,0.58s-1.02-0.19-1.41-0.58C47.88,14.78,47.69,14.31,47.69,13.77z
		 M47.96,17.26h3.43v11.1h-3.43V17.26z"/>
	<path d="M53.9,11.09h3.43v17.27H53.9V11.09z"/>
	<path d="M66.99,12.19h5.39l3.72,10.55h0.05l3.75-10.55h5.37v16.18h-3.56V15.96h-0.05l-4.25,12.41h-2.72L70.6,15.96h-0.05v12.41
		h-3.56V12.19z"/>
	<path d="M95.64,20.85c-0.17-0.24-0.4-0.45-0.71-0.61S94.3,20,93.95,20c-0.87,0-1.54,0.26-2.02,0.78c-0.48,0.52-0.72,1.2-0.72,2.03
		c0,0.84,0.24,1.52,0.72,2.03c0.48,0.52,1.15,0.78,2.02,0.78c0.38,0,0.71-0.08,0.98-0.25c0.27-0.17,0.51-0.37,0.71-0.59l2.26,2.38
		c-0.53,0.55-1.16,0.93-1.88,1.15c-0.72,0.22-1.41,0.33-2.07,0.33c-0.85,0-1.66-0.14-2.41-0.41c-0.75-0.27-1.41-0.67-1.97-1.18
		s-0.99-1.12-1.31-1.84c-0.32-0.72-0.48-1.52-0.48-2.4s0.16-1.68,0.48-2.4c0.32-0.72,0.76-1.33,1.31-1.84s1.21-0.9,1.97-1.18
		c0.75-0.27,1.56-0.41,2.41-0.41c0.66,0,1.34,0.11,2.07,0.33c0.72,0.22,1.35,0.61,1.88,1.15L95.64,20.85z"/>
	<path d="M99.57,12.19h4.84l6.88,11.24h0.05V12.19h3.56v16.18h-4.66l-7.06-11.51h-0.05v11.51h-3.56V12.19z"/>
	<path d="M124.73,26.97h-0.05c-0.38,0.59-0.89,1.02-1.52,1.28c-0.63,0.26-1.3,0.39-2,0.39c-0.52,0-1.02-0.07-1.5-0.22
		c-0.48-0.14-0.9-0.36-1.27-0.65c-0.37-0.29-0.66-0.65-0.87-1.07c-0.21-0.43-0.32-0.92-0.32-1.48c0-0.64,0.12-1.18,0.35-1.62
		c0.24-0.44,0.56-0.81,0.96-1.1s0.86-0.51,1.38-0.67c0.52-0.16,1.05-0.28,1.61-0.35c0.56-0.08,1.11-0.12,1.67-0.14
		c0.56-0.02,1.07-0.02,1.54-0.02c0-0.61-0.22-1.09-0.65-1.45c-0.43-0.36-0.95-0.54-1.54-0.54c-0.56,0-1.08,0.12-1.54,0.35
		s-0.88,0.56-1.24,0.97l-1.83-1.87c0.64-0.59,1.39-1.04,2.24-1.34c0.85-0.3,1.74-0.45,2.65-0.45c1,0,1.83,0.13,2.48,0.38
		c0.65,0.25,1.17,0.62,1.55,1.11c0.39,0.49,0.66,1.08,0.81,1.79c0.15,0.71,0.23,1.53,0.23,2.46v5.64h-3.15V26.97z M123.88,23.5
		c-0.26,0-0.58,0.01-0.97,0.03c-0.39,0.02-0.76,0.09-1.12,0.19c-0.36,0.11-0.66,0.27-0.91,0.48c-0.25,0.21-0.38,0.51-0.38,0.89
		c0,0.41,0.17,0.72,0.53,0.91c0.35,0.2,0.72,0.3,1.1,0.3c0.33,0,0.66-0.05,0.97-0.14c0.31-0.09,0.59-0.22,0.83-0.39
		s0.44-0.38,0.58-0.64c0.14-0.26,0.22-0.56,0.22-0.91V23.5H123.88z"/>
	<path d="M130.03,17.26h3.29v1.51h0.05c0.11-0.21,0.26-0.43,0.46-0.64c0.2-0.21,0.43-0.4,0.71-0.57c0.27-0.17,0.59-0.3,0.94-0.41
		c0.35-0.11,0.73-0.16,1.14-0.16c0.78,0,1.47,0.16,2.07,0.48c0.6,0.32,1.05,0.82,1.36,1.51c0.4-0.72,0.88-1.23,1.44-1.53
		c0.56-0.3,1.26-0.46,2.08-0.46c0.75,0,1.37,0.13,1.88,0.38c0.51,0.25,0.91,0.59,1.21,1.03c0.3,0.43,0.51,0.94,0.64,1.53
		c0.13,0.59,0.19,1.22,0.19,1.89v6.56h-3.43V21.9c0-0.52-0.11-0.96-0.33-1.34c-0.22-0.37-0.61-0.56-1.18-0.56
		c-0.4,0-0.73,0.07-0.99,0.19s-0.48,0.31-0.64,0.54c-0.16,0.23-0.27,0.49-0.34,0.8c-0.07,0.3-0.1,0.62-0.1,0.96v5.87h-3.43v-5.87
		c0-0.2-0.01-0.44-0.02-0.73c-0.02-0.29-0.07-0.56-0.16-0.82c-0.09-0.26-0.24-0.48-0.45-0.66c-0.21-0.18-0.51-0.27-0.9-0.27
		c-0.44,0-0.8,0.08-1.07,0.24c-0.27,0.16-0.48,0.37-0.63,0.64c-0.15,0.27-0.24,0.57-0.29,0.9c-0.05,0.34-0.07,0.69-0.07,1.05v5.53
		h-3.43V17.26z"/>
	<path d="M156.87,26.97h-0.05c-0.38,0.59-0.89,1.02-1.52,1.28c-0.63,0.26-1.3,0.39-2,0.39c-0.52,0-1.02-0.07-1.5-0.22
		c-0.48-0.14-0.9-0.36-1.27-0.65c-0.37-0.29-0.66-0.65-0.87-1.07c-0.21-0.43-0.32-0.92-0.32-1.48c0-0.64,0.12-1.18,0.35-1.62
		c0.24-0.44,0.56-0.81,0.96-1.1s0.86-0.51,1.38-0.67c0.52-0.16,1.05-0.28,1.61-0.35c0.56-0.08,1.11-0.12,1.67-0.14
		c0.56-0.02,1.07-0.02,1.54-0.02c0-0.61-0.22-1.09-0.65-1.45c-0.43-0.36-0.95-0.54-1.54-0.54c-0.56,0-1.08,0.12-1.54,0.35
		c-0.46,0.24-0.88,0.56-1.24,0.97l-1.83-1.87c0.64-0.59,1.39-1.04,2.24-1.34c0.85-0.3,1.74-0.45,2.65-0.45c1,0,1.83,0.13,2.48,0.38
		c0.65,0.25,1.17,0.62,1.55,1.11c0.39,0.49,0.66,1.08,0.81,1.79c0.15,0.71,0.23,1.53,0.23,2.46v5.64h-3.15V26.97z M156.03,23.5
		c-0.26,0-0.58,0.01-0.97,0.03c-0.39,0.02-0.76,0.09-1.12,0.19c-0.36,0.11-0.66,0.27-0.91,0.48c-0.25,0.21-0.38,0.51-0.38,0.89
		c0,0.41,0.17,0.72,0.53,0.91c0.35,0.2,0.72,0.3,1.1,0.3c0.33,0,0.66-0.05,0.97-0.14c0.31-0.09,0.59-0.22,0.83-0.39
		s0.44-0.38,0.58-0.64c0.14-0.26,0.22-0.56,0.22-0.91V23.5H156.03z"/>
	<path d="M162.17,17.26h3.43v1.78h0.05c0.37-0.69,0.8-1.2,1.3-1.54c0.5-0.34,1.13-0.51,1.9-0.51c0.2,0,0.4,0.01,0.59,0.02
		c0.2,0.01,0.38,0.05,0.55,0.09v3.13c-0.24-0.08-0.48-0.13-0.72-0.17c-0.24-0.04-0.48-0.06-0.74-0.06c-0.66,0-1.17,0.09-1.55,0.27
		c-0.38,0.18-0.67,0.44-0.88,0.77c-0.21,0.33-0.34,0.72-0.4,1.18c-0.06,0.46-0.09,0.96-0.09,1.51v4.64h-3.43V17.26z"/>
	<path d="M178.44,26.97h-0.05c-0.38,0.59-0.89,1.02-1.52,1.28c-0.63,0.26-1.3,0.39-2,0.39c-0.52,0-1.02-0.07-1.5-0.22
		c-0.48-0.14-0.9-0.36-1.27-0.65c-0.37-0.29-0.66-0.65-0.87-1.07c-0.21-0.43-0.32-0.92-0.32-1.48c0-0.64,0.12-1.18,0.35-1.62
		c0.24-0.44,0.56-0.81,0.96-1.1s0.86-0.51,1.38-0.67c0.52-0.16,1.05-0.28,1.61-0.35c0.56-0.08,1.11-0.12,1.67-0.14
		c0.56-0.02,1.07-0.02,1.54-0.02c0-0.61-0.22-1.09-0.65-1.45c-0.43-0.36-0.95-0.54-1.54-0.54c-0.56,0-1.08,0.12-1.54,0.35
		s-0.88,0.56-1.24,0.97l-1.83-1.87c0.64-0.59,1.39-1.04,2.24-1.34c0.85-0.3,1.74-0.45,2.65-0.45c1,0,1.83,0.13,2.48,0.38
		c0.65,0.25,1.17,0.62,1.55,1.11c0.39,0.49,0.66,1.08,0.81,1.79c0.15,0.71,0.23,1.53,0.23,2.46v5.64h-3.15V26.97z M177.59,23.5
		c-0.26,0-0.58,0.01-0.97,0.03c-0.39,0.02-0.76,0.09-1.12,0.19c-0.36,0.11-0.66,0.27-0.91,0.48c-0.25,0.21-0.38,0.51-0.38,0.89
		c0,0.41,0.17,0.72,0.53,0.91s0.72,0.3,1.1,0.3c0.33,0,0.66-0.05,0.97-0.14c0.31-0.09,0.59-0.22,0.83-0.39s0.44-0.38,0.58-0.64
		c0.14-0.26,0.22-0.56,0.22-0.91V23.5H177.59z"/>
</g>
</svg>
